<svg width="200" height="200" viewBox="0 0 200 200" fill="none" xmlns="http://www.w3.org/2000/svg">
  <rect width="200" height="200" rx="100" fill="#F1F5F9"/>
  <path d="M100 110C122.091 110 140 92.0914 140 70C140 47.9086 122.091 30 100 30C77.9086 30 60 47.9086 60 70C60 92.0914 77.9086 110 100 110Z" fill="#CBD5E1"/>
  <path d="M100 120C66.8629 120 40 146.863 40 180V185C40 193.284 46.7157 200 55 200H145C153.284 200 160 193.284 160 185V180C160 146.863 133.137 120 100 120Z" fill="#CBD5E1"/>
</svg>
